<?xml version="1.0" standalone="no"?>
<!DOCTYPE svg PUBLIC "-//W3C//DTD SVG 20010904//EN"
 "http://www.w3.org/TR/2001/REC-SVG-20010904/DTD/svg10.dtd">
<svg version="1.0" xmlns="http://www.w3.org/2000/svg"
 width="500.000000pt" height="500.000000pt" viewBox="0 0 500.000000 500.000000"
 preserveAspectRatio="xMidYMid meet">

<g transform="translate(0.000000,500.000000) scale(0.100000,-0.100000)"
fill="#000000" stroke="none">
<path d="M1480 2490 l0 -1410 1025 0 1025 0 0 1410 0 1410 -1025 0 -1025 0 0
-1410z m2010 0 l0 -1370 -985 0 -985 0 0 1370 0 1370 985 0 985 0 0 -1370z"/>
<path d="M2170 3170 l0 -400 85 0 85 0 0 246 c0 151 4 243 9 239 6 -3 78 -113
162 -245 l153 -240 88 0 88 0 0 400 0 401 -87 -3 -88 -3 -5 -243 -5 -243 -155
243 -155 243 -87 3 -88 3 0 -401z"/>
<path d="M2210 1920 l0 -400 130 0 c145 0 213 11 284 47 67 34 142 112 174
181 24 51 27 68 27 172 0 104 -3 121 -27 172 -32 69 -107 147 -174 181 -71 36
-139 47 -284 47 l-130 0 0 -400z m273 229 c49 -13 115 -73 138 -124 25 -53 25
-157 0 -210 -35 -77 -122 -135 -203 -135 l-28 0 0 240 0 240 28 0 c15 0 44 -5
65 -11z"/>
</g>
</svg>
